<svg width="181" height="34" viewBox="0 0 181 34" fill="#111144" xmlns="http://www.w3.org/2000/svg"><g clip-path="url(#logo-svg-clip-path)"><path d="M42.5 34L22.8442 0L3.1875 34L42.5 34ZM9.03114 15.9375L18.0625 0H0L9.03114 15.9375ZM34.4725 29.4995L11.2156 29.4995L22.8442 9.38452L34.4725 29.4995Z" fill="current"></path><path d="M155.107 23.7292C155.822 23.7292 156.519 23.7044 157.199 23.6549C157.88 23.6061 158.498 23.5419 159.057 23.4636C159.614 23.3847 160.104 23.311 160.529 23.2422C160.951 23.1733 161.275 23.1091 161.5 23.0502V13.4287C161.5 12.6225 161.389 11.8753 161.164 11.1863C160.941 10.4979 160.583 9.90238 160.095 9.40075C159.602 8.89827 158.96 8.50488 158.17 8.21989C157.378 7.93491 156.412 7.79174 155.276 7.79174C154.16 7.79174 153.206 7.86127 152.414 7.99846C151.622 8.13632 151.036 8.28343 150.658 8.44065L150.959 10.1231C151.249 10.0248 151.707 9.89775 152.33 9.73985C152.956 9.58263 153.903 9.50368 155.175 9.50368C156.066 9.50368 156.786 9.62613 157.333 9.87241C157.88 10.1192 158.304 10.4437 158.606 10.8471C158.905 11.2499 159.101 11.702 159.19 12.2045C159.266 12.6333 159.303 13.0755 159.315 13.5265H159.323V13.7332C159.323 13.7405 159.325 13.7465 159.325 13.7539V14.6984H159.323V16.3804H159.325V21.7517C158.878 21.8306 158.337 21.8949 157.701 21.9437C157.066 21.9932 156.323 22.0173 155.475 22.0173C154.785 22.0173 154.165 21.963 153.618 21.8546C153.073 21.7471 152.603 21.5751 152.213 21.3389C151.823 21.1028 151.521 20.7883 151.31 20.3936C151.097 20.0002 150.992 19.5193 150.992 18.9479C150.992 18.2983 151.148 17.7779 151.46 17.3838C151.772 16.9904 152.174 16.6801 152.666 16.4538C153.155 16.2278 153.691 16.0807 154.271 16.011C154.852 15.9428 155.41 15.9087 155.945 15.9087C156.365 15.9087 156.74 15.9207 157.079 15.9428V14.3091C157.051 14.3071 157.025 14.3025 156.998 14.2997C156.652 14.2696 156.323 14.2548 156.011 14.2548C154.964 14.2548 153.993 14.3439 153.1 14.5212C152.208 14.6984 151.438 14.9788 150.791 15.3621C150.145 15.7462 149.642 16.2324 149.285 16.8233C148.929 17.4133 148.75 18.1211 148.75 18.9479C148.75 19.8142 148.912 20.5468 149.235 21.1463C149.557 21.7471 150.005 22.2387 150.574 22.6227C151.143 23.006 151.811 23.2864 152.581 23.4636C153.351 23.6402 154.194 23.7292 155.107 23.7292ZM99.8586 23.7292C100.571 23.7292 101.269 23.7044 101.949 23.6549C102.63 23.6061 103.249 23.5419 103.807 23.4636C104.364 23.3847 104.855 23.311 105.279 23.2422C105.703 23.1733 106.027 23.1091 106.25 23.0502V13.4287C106.25 12.6225 106.139 11.8753 105.916 11.1863C105.693 10.4979 105.335 9.90238 104.845 9.40075C104.354 8.89827 103.712 8.50488 102.92 8.21989C102.128 7.93491 101.164 7.79174 100.026 7.79174C98.9096 7.79174 97.9556 7.86127 97.1641 7.99846C96.372 8.13632 95.7869 8.28343 95.4076 8.44065L95.7084 10.1231C95.998 10.0248 96.4557 9.89775 97.081 9.73985C97.705 9.58263 98.653 9.50368 99.9245 9.50368C100.818 9.50368 101.535 9.62613 102.084 9.87241C102.63 10.1192 103.053 10.4437 103.356 10.8471C103.656 11.2499 103.85 11.702 103.942 12.2045C104.018 12.6333 104.053 13.0755 104.065 13.5265H104.075V21.7517C103.628 21.8306 103.089 21.8949 102.452 21.9437C101.816 21.9932 101.074 22.0173 100.227 22.0173C99.5344 22.0173 98.9147 21.963 98.3693 21.8546C97.8222 21.7471 97.3534 21.5751 96.963 21.3389C96.5724 21.1028 96.2717 20.7883 96.0599 20.3936C95.8482 20.0002 95.7426 19.5193 95.7426 18.9479C95.7426 18.2983 95.8983 17.7779 96.2111 17.3838C96.5223 16.9904 96.924 16.6801 97.4154 16.4538C97.9066 16.2278 98.4419 16.0807 99.0211 16.011C99.6019 15.9428 100.159 15.9087 100.694 15.9087C101.115 15.9087 101.488 15.9207 101.829 15.9428V14.3091C101.801 14.3071 101.777 14.3025 101.748 14.2997C101.402 14.2696 101.074 14.2548 100.762 14.2548C99.7134 14.2548 98.7424 14.3439 97.8509 14.5212C96.9583 14.6984 96.1886 14.9788 95.5415 15.3621C94.8938 15.7462 94.3917 16.2324 94.0349 16.8233C93.6781 17.4133 93.5 18.1211 93.5 18.9479C93.5 19.8142 93.6623 20.5468 93.9848 21.1463C94.3087 21.7471 94.7546 22.2387 95.3232 22.6227C95.8924 23.006 96.5626 23.2864 97.3309 23.4636C98.1008 23.6402 98.9434 23.7292 99.8586 23.7292ZM73.2964 23.7292C74.0093 23.7292 74.7066 23.7044 75.3875 23.6549C76.0675 23.6061 76.6869 23.5419 77.245 23.4636C77.8016 23.3847 78.2938 23.311 78.7172 23.2422C79.1407 23.1733 79.4646 23.1091 79.6875 23.0502V13.4287C79.6875 12.6225 79.576 11.8753 79.3538 11.1863C79.1302 10.4979 78.7726 9.90238 78.2825 9.40075C77.7918 8.89827 77.1499 8.50488 76.3578 8.21989C75.5654 7.93491 74.601 7.79174 73.4632 7.79174C72.3472 7.79174 71.3939 7.86127 70.6018 7.99846C69.8094 8.13632 69.2243 8.28343 68.845 8.44065L69.1466 10.1231C69.4361 10.0248 69.8932 9.89775 70.5187 9.73985C71.1426 9.58263 72.0912 9.50368 73.3629 9.50368C74.2549 9.50368 74.9744 9.62613 75.5214 9.87241C76.0675 10.1192 76.4924 10.4437 76.7931 10.8471C77.0945 11.2499 77.2891 11.702 77.3789 12.2045C77.4547 12.6333 77.491 13.0755 77.5035 13.5265H77.5121L77.5125 13.7435L77.5128 13.7539V14.6984H77.5121V16.3804H77.5128V21.7517C77.0662 21.8306 76.526 21.8949 75.8893 21.9437C75.2542 21.9932 74.5121 22.0173 73.6643 22.0173C72.9725 22.0173 72.3531 21.963 71.8068 21.8546C71.26 21.7471 70.7911 21.5751 70.4011 21.3389C70.0107 21.1028 69.7093 20.7883 69.4982 20.3936C69.2858 20.0002 69.1802 19.5193 69.1802 18.9479C69.1802 18.2983 69.3359 17.7779 69.6485 17.3838C69.9599 16.9904 70.3616 16.6801 70.853 16.4538C71.3438 16.2278 71.8787 16.0807 72.4593 16.011C73.039 15.9428 73.5978 15.9087 74.1328 15.9087C74.5522 15.9087 74.9263 15.9207 75.2667 15.9428V14.3091C75.239 14.3071 75.2145 14.3025 75.1868 14.2997C74.8405 14.2696 74.512 14.2548 74.1993 14.2548C73.1505 14.2548 72.1802 14.3439 71.2884 14.5212C70.3959 14.6984 69.626 14.9788 68.9789 15.3621C68.3312 15.7462 67.8293 16.2324 67.4723 16.8233C67.1162 17.4133 66.9375 18.1211 66.9375 18.9479C66.9375 19.8142 67.0996 20.5468 67.4223 21.1463C67.7462 21.7471 68.192 22.2387 68.7606 22.6227C69.3305 23.006 70.0001 23.2864 70.7699 23.4636C71.5396 23.6402 72.3808 23.7292 73.2964 23.7292ZM167.937 29.0417V22.6254C168.319 22.8845 168.93 23.158 169.771 23.4469C170.613 23.7344 171.607 23.8792 172.749 23.8792C174.006 23.8792 175.122 23.6802 176.098 23.2824C177.074 22.8845 177.898 22.3326 178.572 21.6256C179.244 20.9193 179.756 20.0743 180.102 19.0886C180.45 18.1035 180.625 17.0245 180.625 15.8506C180.625 14.597 180.416 13.4734 180.002 12.4782C179.586 11.4835 179.003 10.638 178.253 9.94108C177.501 9.24501 176.602 8.71313 175.56 8.3444C174.517 7.97636 173.356 7.79174 172.077 7.79174C170.528 7.79174 169.25 7.88163 168.241 8.06106C167.231 8.23962 166.4 8.42909 165.75 8.62792V29.0417H167.937ZM85.1268 23.7292V10.0299C85.312 9.94967 85.6991 9.84894 86.2879 9.72751C86.8766 9.60695 87.6559 9.54588 88.6271 9.54588C89.5505 9.54588 90.295 9.59186 90.8618 9.68224C91.4273 9.77349 91.8023 9.85842 91.9873 9.93862L92.4375 8.24554C92.1833 8.14482 91.7278 8.04461 91.0694 7.94318C90.4111 7.84245 89.7124 7.79174 88.9726 7.79174C87.5179 7.79174 86.2816 7.90826 85.2647 8.1399C84.2486 8.37172 83.4515 8.59932 82.875 8.8206V23.7292H85.1268ZM51.0628 29.0417V22.6254C51.4435 22.8845 52.0552 23.158 52.8963 23.4469C53.7381 23.7344 54.7305 23.8792 55.8747 23.8792C57.1312 23.8792 58.2476 23.6802 59.2233 23.2824C60.1998 22.8845 61.0243 22.3326 61.6969 21.6256C62.3702 20.9193 62.8804 20.0743 63.228 19.0886C63.5763 18.1035 63.75 17.0245 63.75 15.8506C63.75 14.597 63.5423 13.4734 63.1278 12.4782C62.7119 11.4835 62.1288 10.638 61.3778 9.94108C60.6257 9.24501 59.7287 8.71313 58.6854 8.3444C57.6412 7.97636 56.481 7.79174 55.2021 7.79174C53.6538 7.79174 52.3749 7.88163 51.3652 8.06106C50.3556 8.23962 49.5257 8.42909 48.875 8.62792V29.0417H51.0628ZM114.543 23.7292C116.58 23.7292 118.187 23.3696 119.363 22.6499C120.537 21.93 121.125 20.871 121.125 19.4707C121.125 18.7319 120.979 18.1174 120.689 17.6266C120.396 17.1366 120.017 16.7179 119.547 16.3678C119.076 16.0177 118.532 15.718 117.919 15.4692C117.302 15.2211 116.658 14.9771 115.987 14.7385C115.338 14.4993 114.762 14.2811 114.257 14.0811C113.754 13.8828 113.328 13.6679 112.981 13.4382C112.633 13.2071 112.371 12.9419 112.193 12.6409C112.012 12.3403 111.923 11.9801 111.923 11.5587C111.923 11.5352 111.926 8.76342 111.928 7.98996L111.929 7.79174H109.72C109.716 7.86957 109.708 10.9921 109.707 11.6251L109.707 11.7348C109.707 12.3941 109.841 12.9542 110.11 13.4136C110.38 13.8739 110.736 14.2687 111.185 14.5985C111.632 14.9282 112.147 15.2178 112.728 15.4678C113.311 15.718 113.926 15.9627 114.577 16.2027C115.382 16.5023 116.06 16.7621 116.609 16.9822C117.156 17.2018 117.599 17.4322 117.934 17.6722C118.271 17.9121 118.51 18.1813 118.658 18.4816C118.802 18.7815 118.875 19.1417 118.875 19.5612C118.875 20.4406 118.466 21.0653 117.649 21.4351C116.833 21.8056 115.797 21.9898 114.543 21.9898C113.848 21.9898 113.238 21.9503 112.713 21.8701C112.186 21.7906 111.734 21.6947 111.352 21.5853C110.971 21.4758 110.669 21.3746 110.446 21.2856C110.222 21.1951 110.076 21.1306 110.009 21.0906L109.438 22.8592C109.707 22.9801 110.244 23.1548 111.051 23.3838C111.856 23.6144 113.02 23.7292 114.543 23.7292ZM130.382 23.7292C130.729 23.0614 131.096 22.3108 131.482 21.476C131.866 20.642 132.264 19.7504 132.672 18.8016C133.081 17.852 133.477 16.8543 133.858 15.8068C134.242 14.7609 134.607 13.6899 134.954 12.5943C135.303 13.6874 135.67 14.7555 136.054 15.8003C136.438 16.8444 136.835 17.841 137.246 18.7891C137.656 19.7381 138.055 20.6289 138.442 21.4624C138.829 22.2958 139.2 23.0518 139.553 23.7292H141.658C142.849 21.5635 143.944 19.2738 144.936 16.8588C145.93 14.4445 146.847 11.7759 147.688 8.85424H145.449C145.193 9.87282 144.873 10.9724 144.487 12.1534C144.102 13.3346 143.686 14.5058 143.244 15.6648C142.798 16.8242 142.356 17.9258 141.911 18.9698C141.467 20.0145 141.046 20.9002 140.649 21.6286C140.18 20.6693 139.719 19.6429 139.266 18.5485C138.809 17.4548 138.379 16.3469 137.974 15.2258C137.568 14.1034 137.196 13.0012 136.86 11.918C136.523 10.8341 136.252 9.81355 136.044 8.85424H134.087C133.81 9.81222 133.498 10.8328 133.151 11.9173C132.802 13.0019 132.432 14.1001 132.039 15.2128C131.646 16.3261 131.225 17.4301 130.777 18.525C130.329 19.6207 129.881 20.6453 129.435 21.5993C129.039 20.8708 128.612 19.9878 128.158 18.9509C127.701 17.9146 127.252 16.8164 126.807 15.6562C126.363 14.4966 125.947 13.3274 125.563 12.1476C125.177 10.9692 124.854 9.87148 124.597 8.85424H122.188C123.023 11.7706 123.934 14.438 124.925 16.8548C125.914 19.2711 127.005 21.5629 128.2 23.7292H130.382ZM172.601 22.6667C172.072 22.6667 171.567 22.6207 171.085 22.5307C170.601 22.4402 170.152 22.3235 169.738 22.1821C169.323 22.0413 168.961 21.8903 168.651 21.7283C168.341 21.567 168.082 21.4153 167.875 21.2738V10.341C168.22 10.2401 168.733 10.144 169.41 10.0526C170.089 9.96208 170.98 9.91674 172.084 9.91674C174.016 9.91674 175.567 10.4673 176.74 11.5676C177.915 12.6681 178.5 14.2476 178.5 16.3071C178.5 17.1749 178.397 17.9986 178.19 18.775C177.983 19.5528 177.649 20.2284 177.189 20.8043C176.73 21.3795 176.126 21.8339 175.379 22.1669C174.631 22.4998 173.706 22.6667 172.601 22.6667ZM55.7258 22.6667C55.1961 22.6667 54.6908 22.6207 54.2081 22.5307C53.7247 22.4402 53.2765 22.3235 52.8624 22.1821C52.4483 22.0413 52.0858 21.8903 51.7758 21.7283C51.4658 21.567 51.2068 21.4153 51 21.2738V10.341C51.3441 10.2401 51.8568 10.144 52.5348 10.0526C53.2133 9.96208 54.1047 9.91674 55.2076 9.91674C57.1401 9.91674 58.6925 10.4673 59.8646 11.5676C61.0382 12.6681 61.625 14.2476 61.625 16.3071C61.625 17.1749 61.5216 17.9986 61.3143 18.775C61.1077 19.5528 60.7738 20.2284 60.3141 20.8043C59.8532 21.3795 59.25 21.8339 58.5027 22.1669C57.7547 22.4998 56.8292 22.6667 55.7258 22.6667Z" fill="current"></path></g><defs><clipPath id="logo-svg-clip-path"><rect width="180.625" height="34" fill="white"></rect></clipPath></defs></svg>